<svg xmlns="http://www.w3.org/2000/svg" viewBox="0 0 100 100" width="100" height="100">
  <!-- 背景圆 -->
  <circle cx="50" cy="50" r="48" fill="#1890ff" stroke="#0050b3" stroke-width="2"/>

  <!-- 视频帧 (胶片符号) -->
  <rect x="25" y="30" width="50" height="40" rx="3" fill="#ffffff" stroke="#0050b3" stroke-width="2"/>

  <!-- 帧孔 -->
  <rect x="28" y="33" width="4" height="4" rx="1" fill="#1890ff"/>
  <rect x="28" y="43" width="4" height="4" rx="1" fill="#1890ff"/>
  <rect x="28" y="53" width="4" height="4" rx="1" fill="#1890ff"/>
  <rect x="28" y="63" width="4" height="4" rx="1" fill="#1890ff"/>

  <rect x="68" y="33" width="4" height="4" rx="1" fill="#1890ff"/>
  <rect x="68" y="43" width="4" height="4" rx="1" fill="#1890ff"/>
  <rect x="68" y="53" width="4" height="4" rx="1" fill="#1890ff"/>
  <rect x="68" y="63" width="4" height="4" rx="1" fill="#1890ff"/>

  <!-- AI 星光效果 -->
  <path d="M50 38 L52 42 L56 44 L52 46 L50 50 L48 46 L44 44 L48 42 Z" fill="#ffd700" opacity="0.9"/>
  <circle cx="60" cy="55" r="2" fill="#ffd700" opacity="0.8"/>
  <circle cx="42" cy="58" r="1.5" fill="#ffd700" opacity="0.7"/>

  <!-- 文字 F -->
  <text x="50" y="62" font-family="Arial, sans-serif" font-size="20" font-weight="bold" fill="#0050b3" text-anchor="middle">F</text>
</svg>